<?xml version="1.0" standalone="no"?>
<!DOCTYPE svg PUBLIC "-//W3C//DTD SVG 1.1//EN" "http://www.w3.org/Graphics/SVG/1.1/DTD/svg11.dtd" >
<!--
2014-12-9: Created.
-->
<svg xmlns="http://www.w3.org/2000/svg">
<metadata>
Created by FontForge 20120731 at Tue Dec  9 14:58:14 2014
 By antoine bernier
Created by antoine bernier with FontForge 2.0 (http://fontforge.sf.net)
</metadata>
<defs>
<font id="cogedimiconfont" horiz-adv-x="512" >
  <font-face 
    font-family="cogedimiconfont"
    font-weight="500"
    font-stretch="normal"
    units-per-em="512"
    panose-1="2 0 6 9 0 0 0 0 0 0"
    ascent="448"
    descent="-64"
    bbox="52.5918 -4.81641 468.784 388.8"
    underline-thickness="25.6"
    underline-position="-51.2"
    unicode-range="U+F100-F115"
  />
    <missing-glyph />
    <glyph glyph-name="uniF10D" unicode="&#xf10d;" 
d="M256.016 94.3682l-194.896 195.264h389.76z" />
    <glyph glyph-name="uniF103" unicode="&#xf103;" 
d="M424 232c0 -79.5684 -64.4805 -144 -144 -144s-144 64.4316 -144 144h288zM104 212.8c-15.8877 0 -28.7998 -12.9121 -28.7998 -28.7998c0 -15.8721 12.9121 -28.7998 28.7998 -28.7998s28.7998 12.9277 28.7998 28.7998c0 15.8877 -12.9121 28.7998 -28.7998 28.7998z
M104 232v0c26.5117 0 48 -21.4717 48 -48c0 -26.4961 -21.4883 -48 -48 -48s-48 21.5039 -48 48c0 26.5283 21.4883 48 48 48zM259.824 231.344l-17.3926 1.3125c1.32812 17.8076 -1.32812 45.9521 -11.1992 49.8398c-23.9521 9.3916 -23.9521 32.4004 -23.9521 61.5039
h17.4395c0 -29.792 1.05664 -40.6396 12.8965 -45.2803c25.248 -9.90332 22.9277 -57.8721 22.208 -67.376zM298.096 231.328l-17.4072 1.32812c1.34375 17.8076 -1.29688 45.9521 -11.1689 49.8398c-23.9512 9.3916 -23.9512 32.3838 -23.9512 61.5039h17.4395
c0 -29.792 1.05664 -40.6396 12.8799 -45.2803c25.248 -9.90332 22.9287 -57.8721 22.208 -67.3916zM336.416 231.344l-17.4082 1.3125c1.32812 17.8076 -1.32812 45.9678 -11.2158 49.8398c-23.9844 9.4082 -23.9844 32.4004 -23.9844 61.5039h17.4404
c0 -29.7764 1.05566 -40.624 12.9277 -45.2803c25.2646 -9.90332 22.96 -57.8555 22.2402 -67.376zM160 32v16h224v-16h-224zM96 48v16h352v-16h-352z" />
    <glyph glyph-name="uniF101" unicode="&#xf101;" 
d="M201.408 348.816c0 26.6556 13.3278 39.9834 39.9834 39.9834c26.6562 0 39.9844 -13.3278 39.9844 -39.9834c0 -26.6562 -13.3281 -39.9844 -39.9844 -39.9844c-26.6556 0 -39.9834 13.3281 -39.9834 39.9844zM318.848 30.0645
c0.288842 -0.577684 0.560978 -1.06857 0.816406 -1.47266c-23.139 -22.2721 -50.8243 -33.4082 -83.0557 -33.4082h-0.320312c-33.1068 0.0883863 -61.3682 11.9 -84.7842 35.4347c-23.416 23.5347 -35.0801 51.8566 -34.9922 84.9657
c0.0638374 24.1759 6.85934 46.3411 20.3865 66.4958c13.5272 20.1546 31.4091 34.8533 53.6457 44.096c-0.230093 -6.30496 -0.235302 -12.2034 -0.015625 -17.6953c0.0367021 -0.884292 0.0738115 -1.61509 0.111328 -2.19238
c-17.0009 -8.60888 -30.5758 -21.0823 -40.7247 -37.4202c-10.1489 -16.3379 -15.2511 -34.11 -15.3065 -53.3161c-0.0722642 -28.1196 9.83344 -52.174 29.7171 -72.1634c19.8837 -19.9894 43.8819 -30.0202 71.9948 -30.0925h0.271484
c32.2657 0 58.6072 12.5387 79.0244 37.6162c0.117188 -1.81949 0.175781 -3.49429 0.175781 -5.02441c0 -0.98112 -0.0107422 -1.75977 -0.0322266 -2.33594c-0.0653301 -4.77513 0.963967 -9.27089 3.08789 -13.4873zM394.4 262.336
c3.74685 -9.0594 1.0587 -15.4487 -8.06445 -19.168c-9.05472 -3.70485 -17.2291 -6.70897 -24.5231 -9.01237s-13.901 -3.73327 -19.821 -4.2896c-5.91993 -0.556335 -10.8412 -0.908461 -14.7638 -1.05638s-8.14 0.5856 -12.6523 2.20055
s-7.83422 2.90397 -9.96577 3.86705c-2.13155 0.963085 -5.53987 2.8155 -10.225 5.55725s-8.0615 4.66106 -10.1292 5.75791v-78.0801c28.6685 -12.1455 50.8446 -29.1484 66.5283 -51.0088c15.9838 -22.2743 23.9304 -48.3381 23.8398 -78.1914
c0 -0.377523 -0.00537109 -0.916951 -0.0161133 -1.61829s-0.0161133 -1.21269 -0.0161133 -1.53406c-0.0955877 -6.53605 -2.47086 -12.0928 -7.12582 -16.6701s-10.2422 -6.86603 -16.7619 -6.86603h-0.383789c-9.63993 0.133803 -16.6373 4.52866 -20.9922 13.1846
c-1.75291 3.48951 -2.59015 7.18548 -2.51172 11.0879v2.40039c0 2.89123 -0.154948 6.07515 -0.464844 9.55176c-1.30265 14.9394 -5.85702 28.1712 -13.6631 39.6953c-7.75082 11.3394 -18.7056 21.0035 -32.8643 28.9922
c-5.46252 3.1091 -11.4713 5.66081 -18.0264 7.65513c-6.55511 1.99432 -12.7028 3.71598 -18.4432 5.165c-5.74036 1.44902 -10.2134 3.02655 -13.419 4.7326c-17.5832 9.0193 -27.0445 31.3552 -28.3838 67.0078c-0.233965 6.38838 -0.201738 12.9056 0.0966797 19.5518
c1.02004 23.5517 3.61737 41.9944 7.79199 55.3281c2.25123 7.18589 8.66117 11.8624 19.2298 14.0296c10.5686 2.1672 18.9468 2.89074 25.1344 2.17063s12.0492 -1.61942 17.5847 -2.69793l0.418327 -0.0785092c7.07508 -2.5469 14.4913 -6.62525 22.2486 -12.235
c7.75731 -5.60979 14.0687 -9.9979 18.9341 -13.1643c4.8654 -3.16642 12.6091 -4.59517 23.2312 -4.28624c10.6221 0.308925 23.615 3.66539 38.9787 10.0694c3.74961 1.55908 7.50277 1.55015 11.2595 -0.0267904s6.40362 -4.25063 7.94071 -8.02106z" />
    <glyph glyph-name="uniF112" unicode="&#xf112;" 
d="M66.4805 210.816c0 8.33594 127.296 111.647 183.279 158.287c5.61621 4.67285 9.45605 6.03223 16.6562 0c55.4404 -46.4795 179.12 -149.968 179.072 -158.287c0 -0.335938 0.015625 -183.28 0.015625 -183.28s-0.52832 -16.6719 -16.624 -16.6719
c-17.2314 0 -16.6719 16.6719 -16.6719 16.6719s0.736328 111.488 0.112305 165.04c-0.0644531 6.71973 -2.94434 15.6475 -7.74414 19.7119c-44.6885 37.8877 -90.3359 74.624 -135.024 112.464c-8.7998 7.44043 -14 6.0957 -21.8076 -0.448242
c-44.1445 -36.9756 -88.8799 -73.248 -132.672 -110.624c-5.56836 -4.73535 -15.248 -15.376 -15.248 -23.7119v-162.448s-0.576172 -16.6719 -16.6719 -16.6719c-17.2168 0 -16.3525 16.6719 -16.3525 16.6719zM273.376 182.128
c-13.7275 0 -25.2637 -3.31152 -34.5762 -9.93555c-5.56738 -3.91992 -10.5918 -9.48828 -15.0723 -16.6729c-4.5918 -7.45508 -6.44727 -12.9912 -7.26367 -19.6797h83.2959l-4.17578 -16.6562h-83.2959v-16.6719h83.2959l-4.16016 -16.6553h-74.9756
c3.42383 -18.7363 11.9033 -33.8086 24.9922 -41.6641c9.40723 -5.64844 18.208 -8.33594 29.1514 -8.33594c15.2803 0 28.9121 4.47949 37.5039 12.4951v-24.9912c-10.2393 -4.73633 -20.9922 -8.33594 -33.3281 -8.33594c-36.96 0 -63.1836 16.9111 -76.1914 47.6475
c-2.62402 6.22461 -5.24805 14.3359 -7.12012 23.168h-16.6562l4.16016 16.6562h12.4961v16.6719h-16.6562l4.16016 16.6562h12.4961c5.05566 26.6562 17.5518 44.2559 38.8799 55.8555c13.168 7.2002 27.6797 10.8008 43.5518 10.8008
c15.2002 0 27.9844 -3.3125 38.3682 -9.93652l-4.91211 -22.8164c-9.9834 8.25684 -21.2959 12.4004 -33.9678 12.4004z" />
    <glyph glyph-name="uniF10A" unicode="&#xf10a;" 
d="M144.816 159.136h25.9033v112.305s5.4082 31.2959 35.6484 47.5039c30.2236 16.1758 55.0723 7.55176 59.376 -1.07227c0 0 11.8555 16.1758 39.9521 2.14355c28.0957 -14.0312 31.2793 -30.2236 33.4717 -53.9834c2.16016 -23.7598 -2.19238 -93.9365 -2.19238 -97.168
c0 0 -16.1592 -15.1045 -32.3672 -19.4238l-16.1924 -4.33691s33.4717 33.4727 33.4717 71.248c0 37.8086 -50.7197 63.6963 -50.7197 63.6963s-2.17578 -21.584 -28.0801 -29.1514c-25.9199 -7.55273 -50.7363 -4.30469 -56.1436 -19.4248
c-5.39258 -15.1201 -4.32031 -47.5039 12.9434 -66.9434c17.2803 -19.4404 22.6719 -25.9199 22.6719 -25.9199l-5.3916 -11.8721s-16.1924 15.1035 -19.4404 18.3516c-3.23145 3.23242 -11.8711 -7.56836 -34.5439 -4.32031
c-22.6875 3.26465 -18.3672 18.3682 -18.3672 18.3682zM157.424 175.328h-13.4082c-19.2637 0 -34.8633 15.6318 -34.8633 34.8799v13.4082c0 19.2637 15.6152 34.8643 34.8633 34.8643h13.4082v-83.1523zM352.064 175.328v83.1523h13.4072
c19.248 0 34.8486 -15.6006 34.8486 -34.8643v-13.4082c0 -19.248 -15.6006 -34.8799 -34.8486 -34.8799h-13.4072zM155.168 279.904h-17.5195c13.0879 55.0713 61.9199 96.0957 119.983 96.0957c58.1279 0 106.912 -41.04 120 -96.0957h-17.5361
c-12.624 45.6152 -53.792 79.1357 -102.464 79.1357c-48.6875 0 -89.8242 -33.5205 -102.464 -79.1357zM285.184 125.12c0 -10.4316 -11.1191 -18.8965 -24.8633 -18.8965c-13.6963 0 -24.8164 8.44824 -24.8164 18.8965s11.1201 18.9121 24.8164 18.9121
c13.7441 0 24.8633 -8.46387 24.8633 -18.9121zM273.312 125.664c22.6562 0 87.4404 15.1201 88.4961 55.0557zM114.576 8h288.271s-20.5273 57.2324 -32.3672 79.8877c-11.8721 22.6719 -49.6807 20.5127 -49.6807 20.5127l-64.7676 -60.4482l-60.4482 58.2881
s-16.208 0 -29.1523 -3.21582c-12.96 -3.24805 -34.5596 -26.9922 -38.8633 -46.4326c-4.33594 -19.4395 -12.9922 -48.5918 -12.9922 -48.5918z" />
    <glyph glyph-name="uniF109" unicode="&#xf109;" 
d="M373.744 16h-235.521c-32.1113 0 -58.2236 26.1436 -58.2236 58.2559v235.504c0 32.1123 15.8877 58.2402 48 58.2402h256c32.1279 0 48 -15.8877 48 -48v-245.744c0 -32.1123 -26.1279 -58.2559 -58.2559 -58.2559zM128 352c-21.0078 0 -32 -10.9756 -32 -32v-256
c0 -21.04 10.9922 -32 32 -32h256c21.04 0 32 10.96 32 32v256c0 21.0244 -10.96 32 -32 32h-256zM312.576 284.304c15.0879 -12.3516 23.4238 -30.4473 23.4238 -50.9277c0 -21.04 -6.89648 -38.2559 -20.4961 -51.168
c-17.168 -16.4482 -43.9678 -25.5361 -75.4395 -25.5361c-2.44824 0 -4.94434 0.0166016 -7.45605 0.0800781v-63.2803c0 -7.40723 -6.52832 -13.4717 -14.5762 -13.4717h-27.4404c-8.06348 0 -14.5918 6.06445 -14.5918 13.4717v193.328
c0 6.57617 5.16797 12.1758 12.208 13.2646c17.04 2.62402 35.5996 3.93555 55.04 3.93555c30.2402 0 53.5684 -6.62402 69.3281 -19.6963zM279.392 231.92c0 6.24023 0 25.1836 -35.4873 25.1836c-4.38477 0 -8.14453 -0.12793 -11.2803 -0.319336v-52.7197
c2.44824 -0.144531 5.12012 -0.208008 8.08008 -0.208008c17.6475 0 38.6875 4.86328 38.6875 28.0635z" />
    <glyph glyph-name="uniF115" unicode="&#xf115;" 
d="M256 388.56c86.4004 0 156.448 -70.0312 156.464 -156.416c0 -1.87109 -0.0634766 -3.74316 -0.175781 -5.64746c-0.576172 -16.4482 -3.67969 -32.2402 -8.95996 -46.9922c-33.3604 -109.728 -147.328 -184.063 -147.328 -184.063s-113.984 74.3516 -147.344 184.063
c-5.28027 14.7686 -8.36816 30.5439 -8.95996 46.9922c-0.0966797 1.9043 -0.144531 3.79199 -0.144531 5.64746c0 86.3848 70.0479 156.416 156.448 156.416zM256 155.52c42.3203 0 76.6396 34.3047 76.6396 76.624c0 42.2881 -34.3359 76.6084 -76.6396 76.6084
c-42.3203 0 -76.624 -34.3037 -76.624 -76.6084c0 -42.3037 34.3037 -76.624 76.624 -76.624z" />
    <glyph glyph-name="uniF100" unicode="&#xf100;" 
d="M393.872 247.408l74.9121 -76.4004h-49.9365v-137.344h-129.04v112.368h-58.2559v-112.368h-129.008v137.344h-49.9521l208.097 212.24l74.9111 -76.4004v38.9443h58.2725v-98.3838z" />
    <glyph glyph-name="uniF10F" unicode="&#xf10f;" 
d="M352.816 118.336c-5.44043 -5.4082 -14.1602 -5.4082 -19.5684 0l-20.9756 20.9756c-5.4082 5.39258 -5.4082 14.1768 0 19.5527v0c5.40723 5.4082 14.1592 5.4082 19.5352 0l20.9766 -20.96c5.4082 -5.42383 5.4082 -14.1768 0.0322266 -19.5684v0zM328.368 93.9355
c-5.37598 -5.40723 -14.7197 -4.83203 -20.8643 1.32812l-29.6318 29.6484c-6.14453 6.12793 -6.75195 15.4717 -1.32812 20.8799v0c5.37598 5.3916 14.7363 4.7998 20.8799 -1.34375l29.6318 -29.6162c6.12793 -6.12793 6.7207 -15.5039 1.3125 -20.8965v0zM304 69.5361
c-5.3916 -5.39258 -14.752 -4.7998 -20.8965 1.34375l-25.3438 25.3604c-6.12793 6.12793 -6.73535 15.4873 -1.32812 20.8799v0c5.4082 5.4082 14.752 4.7998 20.8965 -1.32812l25.376 -25.3438c6.1123 -6.14453 6.7041 -15.5039 1.2959 -20.9121v0zM250.56 91.4717
l-0.6875 -0.719727c0.335938 0.0957031 0.671875 0.208008 1.00781 0.272461c-0.112305 0.111328 -0.208008 0.271484 -0.320312 0.447266zM279.632 45.1523c-5.4082 -5.4248 -14.7676 -4.81641 -20.9121 1.34375l-11.6797 11.6641
c-6.14355 6.12793 -6.71973 15.4883 -1.32812 20.8955v0c5.4082 5.4082 14.752 4.80078 20.8965 -1.32812l11.6797 -11.6631c6.12793 -6.16016 6.71973 -15.5049 1.34375 -20.9121v0zM307.248 281.696c8.6875 0 15.7275 -6.19238 15.6963 -13.8242
c0 -7.64844 -7.02441 -13.8242 -15.7119 -13.8242h-33.8086c-5.28027 -1.63184 -10.6074 -4.47949 -13.8721 -7.75977l-89.1836 -89.1846c-5.04004 -5.03906 -13.3125 -5.03906 -18.3525 0l-30.2881 30.3047c-5.03906 5.02344 -5.07129 13.3281 -0.0634766 18.3994
l65.4717 66.5127c5.00781 5.08789 14.96 9.24805 22.0801 9.24805h54.6562c0.496094 0.03125 0.975586 0.12793 1.47168 0.12793h41.9043zM187.776 301.776c5.05566 -5.05664 5.05566 -13.3125 0 -18.3525l-72.7842 -72.7676
c-5.04004 -5.04004 -13.2959 -5.04004 -18.3525 0l-38.6719 24.3516c-5.04004 5.04004 -5.04004 13.3125 0 18.3525l87.0879 85.4072c5.05664 5.04004 13.3125 5.04004 18.3525 0zM90.3838 228.768c4.57617 0 8.27246 3.69629 8.27246 8.27246
c0 4.55957 -3.69629 8.25586 -8.27246 8.25586s-8.27148 -3.69629 -8.27148 -8.25586c0 -4.57617 3.71191 -8.27246 8.27148 -8.27246zM324.224 279.6c-5.07129 5.05664 -5.07129 13.3125 0.0166016 18.3525l24.3359 36.9922c5.05566 5.04004 13.3115 5.04004 18.3682 0
l87.0879 -85.4082c5.05566 -5.04004 5.05566 -13.2959 0 -18.3525l-38.6885 -24.3516c-5.05566 -5.05566 -13.3115 -5.05566 -18.3359 0zM413.344 233.216c0 -4.55957 3.71191 -8.25586 8.25586 -8.27148c4.57617 0 8.28809 3.69531 8.28809 8.27148
c0 4.56055 -3.72754 8.25586 -8.28809 8.25586c-4.54395 0 -8.25586 -3.69531 -8.25586 -8.25586zM390.096 205.632c6.16016 -6.16016 6.16016 -16.2236 0.0166016 -22.3682l-34.8799 -35.5361l-17.2803 17.248c-4.20801 4.25684 -9.87207 6.59277 -15.8721 6.59277
s-11.6484 -2.33594 -15.9043 -6.57617c-3.16797 -3.18457 -5.2959 -7.15234 -6.16016 -11.4883c-4.22363 2.95996 -9.21582 4.62402 -14.2236 4.62402c-5.87207 0 -11.3281 -2.20801 -15.3281 -6.20801c-4.01562 -4.03223 -6.24023 -9.47168 -6.24023 -15.3604
c0 -2.39941 0.512695 -4.76758 1.23242 -7.08789c-5.79199 -0.0634766 -11.1523 -2.25586 -15.1201 -6.20801c-4.33594 -4.35156 -6.5918 -10.4795 -6.17578 -16.8633c0.335938 -5.48828 2.67188 -10.7041 6.41602 -14.9287l-0.688477 -0.719727
c-3.90332 -0.912109 -7.47168 -2.75195 -10.2881 -5.58398c-2.86328 -2.87988 -4.62402 -6.44824 -5.50391 -10.1924l-9.23145 -9.24805c-6.14453 -6.12793 -15.4883 -6.71973 -20.8965 -1.31152c-5.3916 5.3916 -4.81543 14.752 1.32812 20.8799l59.3438 59.376h-0.015625
c0.719727 0.704102 1.15234 1.67969 1.15234 2.75195c0 2.14453 -1.74414 3.87207 -3.88867 3.87207c-1.07129 0 -2.04785 -0.431641 -2.75195 -1.15234l-60.6396 -60.4951c-6.14453 -6.14453 -15.5039 -6.73633 -20.8965 -1.32812
c-5.3916 5.37598 -4.7998 14.7197 1.37598 20.8633l60.5762 60.5928l-0.0322266 0.03125c0.720703 0.704102 1.13672 1.68066 1.13672 2.75195c0 2.16016 -1.74414 3.87207 -3.88867 3.87207c-1.07129 0 -2.06348 -0.416016 -2.75195 -1.12012l-51.3271 -51.1992
c-5.4082 -5.39258 -14.1602 -5.39258 -19.5527 0c-5.4082 5.40723 -5.4082 14.1602 0 19.5674l1.32812 1.3125c4.52832 0.6875 8.73633 2.71973 12.0322 6.01562l89.1836 89.168c1.91992 1.93652 5.42383 3.91992 9.13672 5.23242l32.4316 -0.0166016
c6.32031 0 12.2881 2.20801 16.8477 6.20801c3.87207 3.4248 6.33594 8.0166 7.15234 12.8965z" />
    <glyph glyph-name="uniF104" unicode="&#xf104;" 
d="M170.944 338.88v0l2.89551 -0.719727l1.16797 2.6875c25.2324 57.5361 136.784 57.5361 161.984 0l1.16797 -2.6875l2.89551 0.719727c1.2168 0.303711 2.46387 0.576172 3.71191 0.799805c26.6729 4.95996 52.752 -3.83984 68.1123 -26.208
c8.78418 -12.7998 12.5605 -28.4639 10.6562 -43.7441c-2.27246 -17.8711 -11.8398 -33.2158 -25.5684 -44.9756c-4.06348 -3.47168 -9.63184 -7.00781 -10.9277 -12.4795c-5.18359 -22.0166 -10.3359 -47.8887 -7.61621 -70.416
c1.28027 -10.8486 -4.97559 -19.1367 -16.0635 -20.7686c-35.5039 -6.08008 -71.376 -9.08789 -107.36 -9.08789c-35.8564 0 -71.6484 2.99219 -106.96 9.00781c-11.2959 1.68066 -17.792 9.80859 -16.4639 20.8486c2.7041 22.5273 -2.44824 48.3994 -7.63184 70.416
c-1.2959 5.47168 -6.84863 9.02344 -10.9121 12.4795c-13.7285 11.7764 -23.2959 27.1201 -25.5518 44.9756c-1.9209 15.2646 1.87109 30.9443 10.6396 43.7285c15.3438 22.3838 41.4395 31.1836 68.1123 26.2236c1.24805 -0.223633 2.47949 -0.496094 3.71191 -0.799805z
M351.904 215.92v0c-4.35254 -0.0957031 -8.46387 0.416016 -12.7207 1.4082c-6.60742 1.56836 -3.90332 15.9834 2.56055 14.4482c13.584 -3.23242 27.0234 0.655273 37.8076 9.10352c9.88867 7.77637 17.2646 18.2402 19.2158 30.6562
c1.64844 10.416 -0.847656 21.0557 -7.18359 29.6475c-9.77637 13.2646 -25.9199 18.2402 -42.0957 15.2324c-9.64844 -1.77637 -17.8398 -7.15234 -22.0322 -15.9521c-2.25586 -4.73633 -10.3838 -3.42383 -9.85645 2.7998
c1.24805 14.4004 -2.70312 27.9043 -12.9912 38.5127c-12.3203 12.6875 -31.0566 18.3672 -48.6406 18.3516c-17.4717 0 -36.0801 -5.64746 -48.3838 -18.2236c-10.5117 -10.7041 -14.4639 -24.416 -13.1836 -39.0078c0.496094 -5.71289 -7.60059 -7.2002 -9.85645 -2.44824
c-4.22363 8.7998 -12.416 14.1758 -22.0635 15.9521c-16.1602 3.02344 -32.3047 -1.95215 -42.0967 -15.2324c-6.31934 -8.5918 -8.7998 -19.2324 -7.18359 -29.6484c1.95215 -12.4316 9.34375 -22.8799 19.248 -30.6553c10.752 -8.44824 24.1914 -12.3359 37.8076 -9.10449
c6.44824 1.53613 9.16797 -12.8799 2.54395 -14.4482c-4.24023 -0.975586 -8.36816 -1.4873 -12.7197 -1.3916c-7.93652 0.719727 -10.3203 -4.86426 -8.51172 -11.6963c4.14355 -19.0234 7.16797 -36 6.43164 -55.584
c-0.208008 -2.86328 1.51953 -5.02344 4.35156 -5.74316l0.176758 -0.0488281l0.160156 -0.03125c30.9434 -4.83203 62 -7.16797 93.3115 -7.16797c30.8799 0 61.5361 2.27148 92.0156 6.95996l0.176758 0.015625l0.15918 0.0478516
c3.52051 0.896484 5.60059 3.42383 5.60059 7.00781c-0.560547 19.2803 2.38379 35.9043 6.46387 54.5439c1.82422 6.83203 -0.576172 12.416 -8.51172 11.6963zM357.312 57.6484c88.9121 0 88.9121 -35.2969 0 -35.2969c-23.2793 0 -79.5674 11.8721 -113.792 8.64062
c-24.0156 -2.30371 -19.5518 -7.9043 -35.1357 -17.8398c-12.6396 -8.08008 -30.9121 -13.1523 -51.2314 -13.1523c-38.1924 0 -69.1523 23.3604 -69.1523 40c0 16.6562 30.96 40 69.1523 40c20.3516 0 38.6719 -5.08789 51.3281 -13.2002
c15.6318 -10 10.8154 -15.5674 34.9912 -17.7441c34.2402 -3.13574 91.0879 8.59277 113.84 8.59277v0z" />
    <glyph glyph-name="uniF102" unicode="&#xf102;" 
d="M432 288h16v-208h-144c-23.4561 0 -27.3604 -16 -48 -16c-20.6084 0 -24.5918 16 -48 16h-144v208h16v-192h16v192v32c61.6797 -1.8877 120.464 -7.3916 160 -32c39.5518 24.6084 98.3203 30.1123 160 32v-32v-192h16v192zM238.336 104.16v152.256
c-31.7441 19.7441 -76.2881 27.3115 -113.52 30.4316v-159.184c45.3438 -3.3916 82.7031 -11.2637 113.52 -23.5039zM383.216 127.664v159.184c-37.2314 -3.12012 -81.792 -10.6875 -113.52 -30.4316v-152.256c30.8154 12.2402 68.1758 20.1123 113.52 23.5039z" />
    <glyph glyph-name="uniF113" unicode="&#xf113;" 
d="M414.096 20.3037h-316.191c9.50391 34.7363 7.63184 68 35.792 92.96c8.7041 7.64844 18.416 15.4561 31.9678 15.4561c12.1436 0 24.4961 -4.49609 35.7764 -15.4561c14.5439 -14.1436 30.8154 -31.0078 45.4238 -45.0713
c0.992188 -0.959961 5.12012 -3.05664 8.78418 -4.6084c16.6553 15.6641 32.6875 35.168 50.0312 51.5996c10.2402 9.69629 22.5762 13.5527 36.1445 13.4404c13.5518 -0.12793 28.4639 -8.36816 36.1436 -22.4805c14.8486 -27.3594 22.3682 -53.4551 36.1279 -85.8398z
M274.064 309.376c-14.9609 -33.4238 -41.8721 -35.1201 -67.0088 -37.9678c-24.416 -2.75195 -34.8477 -15.4404 -29.8232 -37.3438c5.2793 -23.0088 16.8633 -47.6328 24.5596 -69.2168c-13.5684 -2.33594 -37.9043 12.624 -49.376 33.168
c-20 35.8408 -7.3916 141.841 49.376 161.04c15.9043 5.37598 35.3916 3.50391 52.7676 4.30469c4.86426 0.223633 9.93652 -1.64844 14.624 -0.832031c32.0488 5.51953 63.376 -8.43262 72.6562 -39.6006c8.64062 -29.1035 16.0957 -60.1436 18.0645 -90.3359
c2.51172 -38.5117 -31.6318 -67.7441 -72.2725 -67.7441c20.9922 29.3447 46.2881 58.6885 31.6162 94.8486c-7.55176 18.5596 -28.5439 30.6553 -45.1836 49.6797z" />
    <glyph glyph-name="uniF106" unicode="&#xf106;" 
d="M336.368 32.2881c-30.7197 -13.8076 -57.3438 -18.4316 -93.6797 -18.4316c-84.9922 0 -159.729 60.9434 -159.729 161.279c0 104.416 75.7764 195.04 191.472 195.04c90.1123 0 154.624 -61.9521 154.624 -147.952c0 -74.7354 -41.9834 -121.84 -97.2793 -121.84
c-24.0645 0 -41.4727 12.2881 -44.0322 39.4082h-1.02441c-15.8721 -26.0957 -38.9121 -39.4082 -66.0479 -39.4082c-33.2803 0 -57.3438 24.5605 -57.3438 66.5605c0 62.4316 46.0801 119.264 119.792 119.264c22.5283 0 48.1279 -5.63184 60.9443 -12.7998
l-15.3604 -94.7041c-5.12012 -30.1924 -1.55176 -44.0322 12.7998 -44.5439c22.0156 -0.496094 49.6641 27.6641 49.6641 86.5117c0 66.5605 -43.0078 118.272 -122.352 118.272c-78.3359 0 -146.944 -61.4404 -146.944 -159.232
c0 -85.4883 54.7842 -134.112 131.056 -134.112c26.1123 0 53.7607 5.63281 74.2402 16.3682zM290.816 243.712c-4.09668 1.02441 -9.2168 2.04785 -15.8721 2.04785c-33.792 0 -60.4004 -33.2793 -60.4004 -72.6875c0 -19.4404 8.7041 -31.7441 25.5996 -31.7441
c18.9443 0 38.9121 24.0635 43.5205 53.7754z" />
    <glyph glyph-name="uniF107" unicode="&#xf107;" 
d="M392 112c-5.00781 13.6963 -15.5039 35.6641 -44.5117 49.0879c-3.34473 -9.32812 -7.15234 -17.5996 -11.1045 -24.832c19.0566 -8.84766 19.792 -14.0957 23.6318 -24.2715c0.256836 -1.00879 0.0166016 1.40723 0 0v0v-16v-64c0 -2.48047 2.49609 0 0 0h-96v0v0h-96
c-2.51172 0 0 -2.48047 0 0v64v16s7.95215 15.4717 26.9922 24.3037c-3.9834 7.2002 -7.82422 15.4717 -11.2002 24.7998c-29.2793 -13.5684 -41.3271 -33.6963 -46.2715 -47.4238c-1.75977 -5.00781 -1.80859 -14.0645 -1.80859 -14.0645v-67.6641
c0 -17.5518 14.4004 -31.9355 31.9521 -31.9355h97.7607h0.239258h0.255859h97.7764c17.5518 0 28.3203 14.4482 28.3203 32v64v0zM323.2 295.328c3.34375 -7.24805 3.47168 -15.7441 2.33594 -23.6318c-2.56055 -10.8643 -6.62402 -22.3525 -12.9277 -33.2002
l-0.224609 -0.352539l-0.160156 -0.367188c-14.5752 -28.4805 -41.4561 -45.9844 -54.3037 -45.9844c-11.9199 0 -39.6475 18.6885 -54.2559 46.8799l-0.0644531 0.12793l-0.0634766 0.112305c-5.23242 9.63184 -9.00781 20.4639 -11.5361 32.5117
c-1.16797 7.95215 -1.05566 16.5439 2.27246 23.8877c3.18359 6.97656 4.67188 12.5762 5.2959 16.9443c29.3281 -8.39941 77.2637 -15.4883 116.239 10.0645l2.25684 0.0957031c-0.816406 -3.44043 -1.61621 -12.208 5.13574 -27.0879zM344.32 324.544
c-2.97656 13.7441 -13.6162 14.208 -15.04 14.208h-0.160156s6.86426 16.4639 -12.8164 30.2881c-14.6074 10.4639 -31.2959 14.96 -48.0479 14.96c-21.0557 0 -42.2715 -7.07227 -59.6641 -18.2725c-11.9521 -7.67969 -28 -21.8555 -33.9199 -38.6396
c-0.0478516 0.015625 -0.240234 0.0957031 -0.240234 0.0957031c-17.0078 -34.208 -11.7275 -98.4639 -54.4316 -117.008c0 0 16.6885 -22.1758 55.2959 -23.0234c21.6006 -0.496094 39.9199 2.22363 48.416 3.75977c12.3682 -9.42383 24.9121 -14.9121 34.2402 -14.9121
c9.95215 0 22.3359 5.26367 34.3682 14.1924c9.58398 -1.53613 25.7754 -3.50391 44.3359 -3.05664c38.624 0.864258 55.3281 23.0244 55.3281 23.0244c-25.8564 15.9043 -34.1602 43.1035 -40.5283 69.6797c-2 8.43262 -6.38379 41.1523 -7.13574 44.7041zM310.048 169.424
h8.08008c-3.56836 -24.5439 -17.5039 -47.6797 -54.4961 -47.6797c-37.0078 0 -50.9277 23.1357 -54.5117 47.6797h8.08008c7.85547 -17.8398 25.6797 -30.3037 46.4316 -30.3037s38.5439 12.4795 46.416 30.3037z" />
    <glyph glyph-name="uniF10B" unicode="&#xf10b;" 
d="M223.84 314.336c0 23.5306 11.7653 35.2959 35.2959 35.2959c23.5306 0 35.2959 -11.7653 35.2959 -35.2959s-11.7653 -35.2959 -35.2959 -35.2959c-23.5306 0 -35.2959 11.7653 -35.2959 35.2959zM391.584 301.632c7.76321 3.1638 13.2085 0.865295 16.3359 -6.89551
c3.15167 -7.73344 0.863581 -13.1843 -6.86426 -16.3525c-43.0779 -17.6421 -79.8032 -28.1167 -110.176 -31.4238v-79.6484c24.4685 -10.3539 43.3858 -24.8604 56.752 -43.5195c13.6331 -18.9616 20.4117 -41.1856 20.3359 -66.6719
c0 -0.322754 -0.00260417 -0.782796 -0.0078125 -1.38013s-0.0078125 -1.03345 -0.0078125 -1.30835c-0.0721585 -5.56742 -2.09748 -10.306 -6.07597 -14.2156c-3.97849 -3.90965 -8.74776 -5.86448 -14.3078 -5.86448h-0.335938
c-5.63042 0.0722412 -10.4068 2.13324 -14.3292 6.183c-3.92235 4.04976 -5.83932 8.89566 -5.75091 14.5377c0.0208333 0.490234 0.03125 1.17285 0.03125 2.04785c-0.0555535 16.1729 -4.07671 30.1781 -12.0635 42.0156
c-6.62643 9.68868 -15.9705 17.9182 -28.0322 24.6885c-12.425 7.09115 -26.6063 12.083 -42.5439 14.9756c-3.13835 -10.7314 -8.1517 -21.2969 -15.04 -31.6963c-20.3044 -30.7949 -53.2751 -54.6188 -98.9121 -71.4717
c-2.36782 -0.853516 -4.73045 -1.28027 -7.08789 -1.28027c-9.45707 0 -15.8356 4.43229 -19.1357 13.2969c-1.19329 3.66283 -1.51395 7.21065 -0.961986 10.6434s1.99136 6.57176 4.31818 9.41688s5.22404 4.9103 8.69166 6.19553
c35.4115 13.1794 61.0596 30.7207 76.9443 52.624c6.43121 8.9324 10.6604 17.6469 12.6875 26.1436v94.5283c-7.80799 0.915092 -15.7546 2.37115 -23.8398 4.36816c-28.6732 7.08873 -53.5105 19.4781 -74.5117 37.168c-6.37626 5.3904 -6.87236 11.2888 -1.48828 17.6953
c5.40172 6.38965 11.3057 6.89096 17.7119 1.50391c17.9937 -15.1922 39.4391 -25.8589 64.3359 -32c10.2218 -2.5176 19.9125 -4.03745 29.0723 -4.55957c0.396118 0.0214844 0.684204 0.0322266 0.864258 0.0322266h60.6074
c0.50651 0 1.00781 -0.0322266 1.50391 -0.0966797c27.3989 1.07766 64.4924 11.1844 111.28 30.3203z" />
    <glyph glyph-name="uniF114" unicode="&#xf114;" 
d="M444.448 49.8721h-376.896v284.256h376.912v-284.256h-0.015625zM112.144 76.1602h287.696l-94.6719 96.9434l-17.9199 -18.0635c-7.75977 -7.74414 -18.8643 -12.1924 -30.5439 -12.1924h-0.192383c-11.7119 0.0644531 -22.8633 4.59277 -30.5918 12.4639
l-18.2236 18.4326l-95.5527 -97.584v0zM93.8398 288.992v-193.937l95.376 97.3926l-95.376 96.5439v0zM323.696 191.728l94.4473 -96.6719v191.776l-94.4473 -95.1045v0zM112.208 307.824l132.464 -134.08c2.86426 -2.91211 7.21582 -4.5918 11.9678 -4.5918h0.0800781
c4.67188 0 9.12012 1.66406 11.9043 4.43164l133.344 134.24h-289.76v0z" />
    <glyph glyph-name="uniF111" unicode="&#xf111;" 
d="M96 312c0 16 8 24 24 24s24 -8 24 -24s-8 -24 -24 -24s-24 8 -24 24zM112 60.96c0 -3.58874 -1.30052 -6.64592 -3.90157 -9.17154c-2.60105 -2.52562 -5.74323 -3.78843 -9.42656 -3.78843h-5.34375c-3.68934 0 -6.83302 1.26237 -9.43106 3.78711
c-2.59804 2.52474 -3.89706 5.58236 -3.89706 9.17285v86.1123c0 3.57002 1.29991 6.61715 3.89973 9.14138c2.59982 2.52423 5.74262 3.78635 9.42839 3.78635h5.34375c3.68064 0 6.82216 -1.26346 9.42454 -3.79038s3.90358 -5.57824 3.90358 -9.15396v-86.0957z
M160 60.96c0 -3.58874 -1.30052 -6.64592 -3.90157 -9.17154c-2.60105 -2.52562 -5.74323 -3.78843 -9.42656 -3.78843h-5.34375c-3.68332 0 -6.82551 1.26281 -9.42656 3.78843c-2.60105 2.52562 -3.90157 5.5828 -3.90157 9.17154v86.1123
c0 3.56827 1.30141 6.61496 3.90424 9.14007c2.60283 2.52511 5.74412 3.78766 9.42388 3.78766h5.34375c3.68064 0 6.82216 -1.26346 9.42454 -3.79038s3.90358 -5.57824 3.90358 -9.15396v-86.0957zM157.376 193.712c1.74935 0 2.62402 0.202799 2.62402 0.608398
v-13.4082c0 -3.83285 -2.11275 -5.55639 -6.33826 -5.1706c-1.88748 0.172326 -3.4121 0.258489 -4.57385 0.258489h-62.3838c-1.31444 0 -2.76771 -0.101685 -4.35979 -0.305054c-1.2005 -0.153348 -1.89901 -0.0928687 -2.09554 0.181439
c-0.196533 0.274307 -0.284153 1.31106 -0.262857 3.11025c0.0093956 0.793825 0.0140934 1.43565 0.0140934 1.92547v81.3916l68.4482 -63.2793c4.06211 -3.54167 7.03802 -5.3125 8.92773 -5.3125zM153.536 269.984c1.29999 0.11168 2.66523 -0.0110414 4.0957 -0.368164
v-52.7842l-58.2559 50.7842c-1.01474 0.891766 -2.14006 1.6971 -3.37598 2.41602h56.6562l0.56173 -0.0271254zM368 312c0 16 8 24 24 24s24 -8 24 -24s-8 -24 -24 -24s-24 8 -24 24zM400 60.96v86.0957c0 3.57572 1.30119 6.62704 3.90358 9.15396
s5.7439 3.79038 9.42454 3.79038h5.34375c3.68577 0 6.82857 -1.26212 9.42839 -3.78635c2.59982 -2.52423 3.89973 -5.57136 3.89973 -9.14138v-86.1123c0 -3.59049 -1.29902 -6.6481 -3.89706 -9.17285c-2.59804 -2.52474 -5.74173 -3.78711 -9.43106 -3.78711h-5.34375
c-3.68147 0 -6.82319 1.26431 -9.42517 3.79294s-3.90296 5.5843 -3.90296 9.16702zM352 60.96v86.0957c0 3.57572 1.30119 6.62704 3.90358 9.15396c2.60239 2.52692 5.7439 3.79038 9.42454 3.79038h5.34375c3.67976 0 6.82106 -1.26255 9.42388 -3.78766
c2.60283 -2.52511 3.90424 -5.5718 3.90424 -9.14007v-86.1123c0 -3.58874 -1.30052 -6.64592 -3.90157 -9.17154c-2.60105 -2.52562 -5.74323 -3.78843 -9.42656 -3.78843h-5.34375c-3.68147 0 -6.82319 1.26431 -9.42517 3.79294s-3.90296 5.5843 -3.90296 9.16702z
M354.608 193.712c1.87332 0 4.84923 1.77083 8.92773 5.3125l68.4639 63.2793v-81.3916c0 -0.488867 0.00468012 -1.12961 0.0140404 -1.92223c0.0212668 -1.80086 -0.0666323 -2.83858 -0.263697 -3.11315c-0.197065 -0.274576 -0.897426 -0.335161 -2.10108 -0.181754
c-1.59556 0.203354 -3.05189 0.305031 -4.36899 0.305031h-62.3682c-1.16175 0 -2.68637 -0.086163 -4.57385 -0.258489c-4.22551 -0.385787 -6.33826 1.33775 -6.33826 5.1706v13.4082c0 -0.405599 0.869466 -0.608398 2.6084 -0.608398zM358.464 269.984
l0.287679 0.0192781l0.592204 0.0285735h56.6562c-1.23592 -0.718911 -2.36124 -1.52425 -3.37598 -2.41602l-58.2725 -50.7842v52.7842c1.44584 0.356753 2.81661 0.479475 4.1123 0.368164zM244.832 197.024c-0.641415 0.73278 -1.08933 1.61787 -1.34375 2.65527h22.2393
l-4.27148 -3.69531c-5.94925 -5.19347 -10.7546 -5.68957 -14.416 -1.48828zM301.76 204.032c0.701497 2.63374 2.24284 4.99638 4.62402 7.08789l1.48828 1.32812v-8.41602h-6.1123zM240 256l-64 -48v96zM336 208l-64 48l64 48v-96zM256 240l64 -48v0h-128zM320 320
l-64 -48l-64 48h128z" />
    <glyph glyph-name="uniF10C" unicode="&#xf10c;" 
d="M183.952 91.2158c0 0 12.0156 -24.3193 22.5439 -33.3594c-106.624 27.0234 -138.64 142.208 -148.064 180.224c-0.735352 2.92773 -1.37598 5.51953 -1.96777 7.74414c-1.08789 4.12793 -0.160156 8.52734 2.51172 11.8721
c2.65625 3.34375 6.84863 5.23145 11.0088 5.07129c23.6953 -0.55957 87.2793 12.8008 130.848 26.1768l-13.5205 -29.2803c-32.3037 -9.91992 -69.5352 -20.9277 -100.592 -23.3604c9.9043 -38.8955 32.2402 -113.456 97.2324 -145.088zM120.816 181.392
c11.8398 28.6562 47.8877 21.5684 60.1113 3.82422c0 0 -13.6953 -13.0879 -26.3037 -14.752c-12.5918 -1.66406 -18.0645 -1.13574 -33.8076 10.9277zM454.016 241.984c2.43262 -4.30469 2.64062 -9.48828 0.560547 -13.9199l-1.10449 -2.38477
c-22.3193 -48.3359 -81.6318 -176.752 -202.752 -177.647h-0.0957031c-4.63965 0 -8.99219 2.16016 -11.8398 5.82422c-77.0078 99.7432 -19.248 220.031 2.47949 265.327c1.45605 3.05664 2.75195 5.74414 3.83984 8.08008c2 4.33594 5.9209 7.44043 10.5449 8.43262
c4.62402 0.959961 9.43945 -0.335938 12.9756 -3.48828c35.4561 -31.6797 139.824 -79.2002 173.872 -82.6396c4.83203 -0.464844 9.13574 -3.3125 11.5195 -7.58398zM295.648 192.672c2.25586 24.0479 -23.3281 56.1445 -53.9043 40.0166
c4.73633 -21.7285 9.04004 -26.1123 20.9443 -33.7607c11.9355 -7.64746 32.96 -6.25586 32.96 -6.25586zM319.2 95.7764c2.81543 2.14355 3.37598 6.46387 -0.608398 6.36719c-30.1436 -0.543945 -74.9277 26.832 -82.6719 38.1289
c-2.62402 3.87109 -5.77637 -3.44043 -4.5918 -6.97656c1.2002 -3.48828 6.6875 -44.0479 27.3604 -53.792c20.6719 -9.77637 42.4951 2.6084 60.5117 16.2725zM345.152 159.504c13.4072 -4.44824 19.4873 -5.02344 39.0557 5.12012
c-7.15234 34.1279 -47.8564 33.7441 -64.7197 16.6719c0 0 12.2715 -17.3438 25.6641 -21.792z" />
    <glyph glyph-name="uniF105" unicode="&#xf105;" 
d="M252.032 193.968c0 0 -21.0078 1.04004 -41.1201 -26.9277c-20.0957 -27.9678 -3.3125 -21.1836 -22.5605 -32.6562c-19.2637 -11.4395 -33.6797 -24.9434 -29.7119 -48.5596c3.9043 -23.5684 22.5928 -31.9365 43.1045 -30.0967
c20.5596 1.80859 27.2637 0.65625 43.4717 -6.75195c16.2559 -7.47168 31.0244 -2.31934 40.4639 9.68066c9.32812 12.0957 18.5928 17.2793 35.8242 15.5361c17.2002 -1.66406 49.1357 9.96777 43.8877 41.5352c-5.24805 31.5361 -42.8154 30.1602 -62.3359 53.376
c-19.4561 23.2803 -29.8877 27.1201 -51.0234 24.8643zM129.504 118.912c20.1602 3.34375 32.1758 32.0322 26.8164 63.9844c-5.32812 31.9512 -26.0166 55.1357 -46.1924 51.7275c-20.1758 -3.37598 -32.208 -32.0322 -26.832 -64
c5.37598 -31.9355 26.0479 -55.1201 46.208 -51.7119zM200.688 204.56c20.1592 3.36035 32.1914 32.0166 26.8154 63.9844c-5.32812 31.9678 -26 55.1357 -46.1758 51.7119c-20.1758 -3.34375 -32.1924 -32 -26.8164 -63.9678
c5.36035 -31.9678 26.0479 -55.1357 46.1768 -51.7285zM307.808 222.48c20.1279 3.32715 32.1768 32.0156 26.832 63.9678c-5.35938 31.9678 -26.0156 55.1514 -46.1758 51.7441c-20.1758 -3.34473 -32.1758 -32.0322 -26.8477 -63.9844
c5.35938 -31.9043 26.0635 -55.0723 46.1914 -51.7275zM401.888 154c20.1279 3.34375 32.1602 32 26.8164 63.9844c-5.36035 31.9512 -26.0322 55.1357 -46.1924 51.7119c-20.1758 -3.34473 -32.208 -32.0166 -26.832 -63.9844
c5.32812 -31.9678 26.0166 -55.1201 46.208 -51.7119z" />
    <glyph glyph-name="uniF10E" unicode="&#xf10e;" 
d="M352 112h16v-64h-16v-16h-16v16h-160v-16h-32v16h-16v64h16v74.6719v5.32812h12.6562h189.296h6.04785v-5.32812v-74.6719zM336 112v64h-176v-64h176zM416 32h-32v168.896l-136.048 116.831l-135.952 -116.831v-168.896h-32v181.296l167.968 138.704l168.032 -138.704
v-181.296zM328 133.424c-4.19238 -6.83203 -12.7676 -5.42383 -22.4961 -21.4238h-23.9678c-9.80859 16 -18.2402 10.6562 -22.0645 17.8076c23.3926 16.4482 46.1768 18.7686 68.5283 3.61621zM252.528 133.424c-4.20801 -6.83203 -12.7686 -5.42383 -22.5127 -21.4238
h-23.9678c-9.79199 16 -18.2559 10.6562 -22.0479 17.8076c23.376 16.4482 46.1602 18.7686 68.5283 3.61621z" />
    <glyph glyph-name="uniF108" unicode="&#xf108;" 
d="M344 215.008h-44.0156v57.2002c0 24.4961 -19.7285 44.416 -43.9844 44.416s-40 -19.9199 -40 -44.416v-57.2002h-48v57.2002c0 48.96 39.4561 88.7998 88 88.7998c48.5283 0 88 -39.8398 88 -88.7998v-57.2002zM128 162.32c0 22 26.4961 29.6797 49.3281 29.6797
h165.344c22.8164 0 25.3281 -7.67969 25.3281 -29.6797v-99.5361c0 -21.9521 -2.51172 -46.7842 -25.3438 -46.7842h-165.328c-22.832 0 -49.3281 24.832 -49.3281 46.7842v99.5361zM260.016 142.416c-11.4395 0 -25.5039 -8.87988 -25.5195 -19.9043
c0 -7.2793 5.50391 -13.3916 5.50391 -16.8477v-32.9277c0 -5.50391 2.30371 -9.96875 7.98438 -9.96875c5.74316 0 8.01562 4.46484 8.01562 9.96875v32.9277c16 3.45605 17.5195 9.56836 17.5195 16.8477c0 11.0078 -2.11133 19.9043 -13.5039 19.9043z" />
    <glyph glyph-name="uniF110" unicode="&#xf110;" 
d="M250.816 111.392c4.92773 -3.75977 6.44727 -9.13574 4.0957 -17.5039c-4.7998 -16.96 -3.60059 -22.1602 -12.624 -27.5674c-3.75977 -2.24023 -9.67969 -1.13672 -14.4316 0.847656c-4.73633 2.0957 -9.64844 5.66406 -10.8486 10.1123
c-0.704102 2.5918 -0.832031 4.6875 -0.527344 6.60742c-2.19238 -2.57617 -4.89648 -4.28809 -9.2168 -5.72754c-4.86328 -1.56836 -11.3115 1.2002 -16.2559 4.76758c-4.84766 3.60059 -9.56738 8.99219 -9.82422 14.3359
c-0.191406 3.9043 0.416016 6.65625 1.68066 9.04004c-2.7998 -2.06348 -5.87207 -3.16797 -10.5283 -3.4873c-5.10352 -0.352539 -10.7041 3.95117 -14.6719 8.5918c-3.87207 4.67188 -7.2002 11.0879 -6.20801 16.3359c0.624023 3.24805 1.61621 5.55176 2.97559 7.42383
c-2.84766 -1.13574 -5.87207 -1.45605 -10.0312 -0.864258c-5.07227 0.688477 -9.72852 6.04785 -12.7041 11.3926c-2.89648 5.3916 -4.89648 12.3193 -2.89648 17.2959c4.7998 11.792 12.0322 8.60742 29.5039 18.7998c5.79199 3.4082 14.1445 3.10449 20.0479 -2.54395
c1.4082 -1.32812 4.80078 -5.74414 5.55273 -9.74414c1.43945 -5.47168 0.351562 -10.3203 -3.87207 -14.9756c4.91211 2.52734 11.2793 2.7998 16.7998 -0.65625c1.63184 -1.05566 5.82422 -4.67188 7.32812 -8.43164
c2.25586 -4.65625 2.35156 -9.2002 -0.0957031 -14.0967c4.06348 2.89648 9.55176 4.14453 15.0713 2.36816c1.80859 -0.591797 6.75195 -3.12012 9.08789 -6.41602c3.85645 -4.60742 4.78418 -9.83984 2.32031 -16.4961c2.87988 2.81641 6.94434 4.5918 11.5039 4.17578
c1.63184 -0.111328 6.22461 -1.2959 8.76855 -3.58398zM389.328 204.704l-67.1201 92.7842c-3.72754 5.12012 -2.6084 12.3516 2.44824 16.1113l38.0957 28.1924c5.04004 3.72754 12.208 2.6084 15.9199 -2.49609l67.1357 -92.7998
c3.71191 -5.10449 2.59277 -12.3682 -2.46387 -16.1123l-38.0801 -28.1758c-5.05566 -3.75977 -12.2393 -2.62402 -15.9355 2.49609zM122.672 188.704c-3.67969 -5.10449 -10.8643 -6.24023 -15.9355 -2.49609l-38.0801 28.1924
c-5.05664 3.74316 -6.17578 10.9756 -2.46387 16.1113l67.1514 92.7842c3.69629 5.10449 10.8799 6.22363 15.9365 2.48047l38.0801 -28.1768c5.07129 -3.74316 6.17578 -11.0078 2.46387 -16.1113zM382.288 185.184c0.912109 -1.16797 1.87207 -2.22363 2.83203 -3.32715
c-2.25586 -2.41602 -5.74414 -6.88086 -9.39258 -11.6641c-3.07129 2.75195 -7.19922 5.61523 -12.8633 8.15918c-21.1045 11.6641 -33.8086 23.7129 -41.3447 34.6885c-2.12793 3.08789 -3.82324 6.0957 -5.18359 8.97559
c-8.7041 0.0800781 -16.9922 1.52051 -23.9043 3.26465c-4.30371 1.04004 -8.28809 2.30371 -12 3.66406v0l-0.0957031 0.0478516c-9.95215 3.64746 -17.7441 8.20801 -23.4238 12.2236l-4.86426 -4c1.4082 -8.71973 4.0166 -17.2803 0.480469 -33.6641
c-7.2168 -33.584 -34.752 -26.8955 -32.6084 -19.0879c-0.6875 15.8086 -2.67188 27.04 -9.85547 47.0879c-4.43262 12.4639 -0.576172 19.5684 1.2793 24.2725c0.480469 1.18359 6.17578 11.248 10.4805 16.9922c5.21582 6.94336 12.4639 14.9434 21.8398 21.7119
c8.62402 2.7041 17.0723 1.4873 37.7119 -2.16016c4.55957 -0.816406 25.0723 -4.03223 25.0723 -4.03223zM384.112 158.528c-0.543945 1.35938 -2.38477 6.31934 -8.43262 11.6152c3.64844 4.78418 7.13672 9.26465 9.39258 11.6641
c4.20801 -4.83203 8.11133 -9.15137 10.9121 -14.4473c1.67969 -3.08789 2.95996 -6.59277 3.56738 -10.4004c0.224609 -1.50391 0.879883 -6.84766 -0.160156 -11.7598c-1.07129 -6.38379 -4.0957 -12.0801 -8.43164 -16.4326
c-3.3916 -3.37598 -7.63184 -5.9834 -12.3359 -7.47168c0.927734 -2.87988 1.42383 -5.95215 1.42383 -9.12012c0 -8.20801 -3.34375 -15.7275 -8.73633 -21.1201c-5.34375 -5.40723 -12.8477 -8.7998 -21.0557 -8.7998c-2.0957 0 -4.12793 0.288086 -6.0957 0.65625
c-1.24805 -5.74414 -4.14453 -10.8643 -8.1123 -14.8477c-5.3916 -5.44043 -12.9277 -8.81641 -21.2158 -8.81641c-2.44824 0 -4.83203 0.303711 -7.12012 0.864258c-1.2002 -4.75195 -3.63184 -9.05664 -6.97559 -12.3359
c-4.22461 -4.25684 -9.91992 -7.10449 -16.1924 -7.72852c-0.912109 -0.12793 -4.62402 -0.0957031 -5.51953 0.0322266c-2.86426 0.335938 -5.56836 1.10352 -8.0166 2.12793c-3.24805 1.4082 -6.06348 3.2959 -8.57617 5.3916
c-0.575195 0.512695 -1.10352 1.05664 -1.66406 1.55273c4.16016 3.80762 6.52832 7.96777 8.12891 12.3994c0.015625 -0.015625 0.03125 -0.0478516 0.0634766 -0.0800781c0.383789 -0.55957 4.25586 -5.95215 9.98438 -7.02344
c8.73535 -1.75977 14.3193 6.5918 15.0078 7.50391c3.24805 4.51172 2.94434 10 0.607422 18.6562c0 0 8.76855 -10.7842 23.1201 -6.43262c2.40039 0.432617 4.62402 1.47266 6.49609 2.87988c13.7119 8.68848 5.52051 28.1602 4.06445 31.376l0.303711 -0.208008
c1.87207 -2.27148 8.54395 -9.71191 17.3438 -11.0234c2.65625 -0.543945 6.0166 -0.224609 6.81641 -0.0644531c6.81543 1.2959 10.9922 7.15234 11.5518 8c5.93652 9.15234 -2.99219 22.6885 -9.67969 28.6084c11.4717 -2.78418 28.7676 0.448242 30.7041 14.1914
c0.160156 1.05664 0.383789 5.95215 -1.16797 10.5928z" />
  </font>
</defs>
</svg>
