<?xml version="1.0" encoding="utf-8"?>
<!-- Generator: Adobe Illustrator 16.0.0, SVG Export Plug-In . SVG Version: 6.00 Build 0)  -->
<!DOCTYPE svg PUBLIC "-//W3C//DTD SVG 1.1//EN" "http://www.w3.org/Graphics/SVG/1.1/DTD/svg11.dtd">
<svg version="1.1" id="site" xmlns="http://www.w3.org/2000/svg" xmlns:xlink="http://www.w3.org/1999/xlink" x="0px" y="0px"
	 width="32px" height="32px" viewBox="0 0 32 32" enable-background="new 0 0 32 32" xml:space="preserve">
<g id="book">
	<path id="book-17-icon" display="inline" fill="#231F20" d="M27,10v12h-1V10V8c-3.855,0.118-7.528,0.462-10,2
		C13.529,8.462,9.855,8.118,6,8v2v12H5V10H4v13h9c1.463,0,1.712,1,3,1c1.29,0,1.534-1,3-1h9V10H27z M14.896,21.49
		c-1.926-0.765-4.261-1.257-7.095-1.469v-9.949c2.327,0.195,5.111,0.668,7.095,1.902V21.49z M23.951,20.021
		c-2.834,0.212-5.169,0.704-7.095,1.469v-9.516c1.983-1.234,4.768-1.707,7.095-1.902V20.021z"/>
</g>
</svg>
