<?xml version="1.0" encoding="utf-8"?>
<!-- Generator: Adobe Illustrator 16.0.0, SVG Export Plug-In . SVG Version: 6.00 Build 0)  -->
<!DOCTYPE svg PUBLIC "-//W3C//DTD SVG 1.1//EN" "http://www.w3.org/Graphics/SVG/1.1/DTD/svg11.dtd">
<svg version="1.1" id="site" xmlns="http://www.w3.org/2000/svg" xmlns:xlink="http://www.w3.org/1999/xlink" x="0px" y="0px"
	 width="32px" height="32px" viewBox="0 0 32 32" enable-background="new 0 0 32 32" xml:space="preserve">
<g id="cofee">
	<path display="inline" fill="#231F20" d="M26.5,13.5c0,4.973-4.03,9-9,9c-4.97,0-9-4.027-9-9H26.5z"/>
	<path display="inline" fill="#231F20" d="M6.5,14.7c0.993,0,1.8,0.807,1.8,1.8c0,0.992-0.807,1.8-1.8,1.8s-1.8-0.808-1.8-1.8
		C4.7,15.507,5.507,14.7,6.5,14.7 M6.5,13.5c-1.657,0-3,1.342-3,3c0,1.656,1.343,3,3,3s3-1.344,3-3C9.5,14.842,8.157,13.5,6.5,13.5
		L6.5,13.5z"/>
	<path display="inline" fill="#231F20" d="M16.239,13.541l-1.087-0.082c0.083-1.113-0.083-2.872-0.7-3.115
		c-1.497-0.587-1.497-2.025-1.497-3.844h1.09c0,1.862,0.066,2.54,0.806,2.83C16.429,9.949,16.284,12.947,16.239,13.541z"/>
	<path display="inline" fill="#231F20" d="M18.631,13.542l-1.088-0.083c0.084-1.113-0.081-2.872-0.698-3.115
		C15.348,9.757,15.348,8.32,15.348,6.5h1.09c0,1.862,0.066,2.54,0.805,2.83C18.821,9.949,18.676,12.947,18.631,13.542z"/>
	<path display="inline" fill="#231F20" d="M21.026,13.541l-1.088-0.082c0.083-1.113-0.083-2.873-0.701-3.115
		c-1.499-0.588-1.499-2.025-1.499-3.844h1.09c0,1.861,0.066,2.539,0.808,2.83C21.215,9.949,21.071,12.946,21.026,13.541z"/>
	<rect x="10" y="25" display="inline" fill="#231F20" width="14" height="1"/>
	<rect x="6" y="24" display="inline" fill="#231F20" width="22" height="1"/>
</g>
</svg>
