<?xml version="1.0" encoding="utf-8"?>
<!-- Generator: Adobe Illustrator 16.0.0, SVG Export Plug-In . SVG Version: 6.00 Build 0)  -->
<!DOCTYPE svg PUBLIC "-//W3C//DTD SVG 1.1//EN" "http://www.w3.org/Graphics/SVG/1.1/DTD/svg11.dtd">
<svg version="1.1" id="site" xmlns="http://www.w3.org/2000/svg" xmlns:xlink="http://www.w3.org/1999/xlink" x="0px" y="0px"
	 width="32px" height="32px" viewBox="0 0 32 32" enable-background="new 0 0 32 32" xml:space="preserve">
<g id="cooking">
	<path display="inline" fill-rule="evenodd" clip-rule="evenodd" fill="#231F20" d="M10.684,6.82
		c-0.077-0.019-0.154-0.036-0.232-0.05C8.785,6.46,7.154,7.01,6.195,8.409C5.647,9.208,5.41,10.188,5.53,11.142
		c0.141,1.116,0.739,2.075,1.597,2.811c0.254,0.216,0.601,0.438,0.682,0.78c0.324,1.376,0.646,2.993,0.477,4.401
		c-0.083,0.69,0.323,1.198,1.029,1.303C11.522,20.813,13.759,21,16,21c2.249,0,4.491-0.188,6.71-0.568
		c0.693-0.102,1.084-0.62,1.004-1.298c-0.17-1.408,0.152-3.025,0.476-4.401c0.081-0.342,0.429-0.563,0.683-0.78
		c0.858-0.735,1.456-1.694,1.598-2.811c0.119-0.955-0.117-1.934-0.666-2.734C24.845,7.01,23.215,6.46,21.548,6.77
		c-0.078,0.014-0.156,0.031-0.232,0.05l-0.181,0.045l-0.073-0.168c-1.575-3.596-8.547-3.596-10.124,0l-0.073,0.168L10.684,6.82
		L10.684,6.82z M21.994,14.505c0.496-0.045,0.646,0.304,0.532,0.731c-0.255,1.165-0.439,2.204-0.404,3.409
		c0,0.224-0.13,0.382-0.35,0.438l-0.01,0.003l-0.011,0.001C19.846,19.38,17.93,19.522,16,19.522c-1.957,0-3.898-0.146-5.832-0.448
		l-0.01-0.002l-0.011-0.003c-0.177-0.045-0.285-0.18-0.272-0.359c0.046-1.224-0.143-2.285-0.402-3.474
		c-0.113-0.427,0.036-0.776,0.532-0.731c0.272,0.006,0.53-0.026,0.795-0.087c0.414-0.098,0.244-0.999-0.159-0.903
		c-0.851,0.202-1.691-0.041-2.363-0.569c-0.619-0.486-1.081-1.139-1.203-1.916c-0.101-0.651,0.054-1.316,0.449-1.853
		c0.612-0.83,1.621-1.141,2.631-0.952c0.603,0.111,1.115,0.447,1.379,0.997c0.141,0.297,0.647,0.204,0.616-0.153
		c-0.08-0.912,0.167-1.769,0.824-2.438c0.769-0.786,1.932-1.139,3.024-1.139c1.099-0.001,2.27,0.354,3.04,1.147
		c0.643,0.663,0.89,1.507,0.812,2.407c-0.033,0.389,0.475,0.471,0.616,0.175c0.262-0.55,0.774-0.886,1.377-0.997
		c1.011-0.188,2.02,0.123,2.631,0.952c0.396,0.537,0.552,1.202,0.449,1.853c-0.122,0.776-0.583,1.43-1.201,1.916
		c-0.674,0.528-1.514,0.771-2.363,0.569c-0.404-0.096-0.573,0.805-0.16,0.903C21.465,14.479,21.722,14.511,21.994,14.505
		L21.994,14.505z"/>
	<path display="inline" fill-rule="evenodd" clip-rule="evenodd" fill="#231F20" d="M22.332,24.397c5.557,0,5.557,2.206,0,2.206
		c-1.455,0-4.973-0.742-7.112-0.54c-1.501,0.144-1.222,0.494-2.196,1.115C12.234,27.683,11.092,28,9.822,28
		C7.435,28,5.5,26.54,5.5,25.5c0-1.041,1.935-2.5,4.322-2.5c1.272,0,2.417,0.318,3.208,0.825c0.977,0.625,0.676,0.973,2.187,1.109
		C17.357,25.13,20.91,24.397,22.332,24.397L22.332,24.397z"/>
</g>
</svg>
