<?xml version="1.0" encoding="utf-8"?>
<!-- Generator: Adobe Illustrator 16.0.0, SVG Export Plug-In . SVG Version: 6.00 Build 0)  -->
<!DOCTYPE svg PUBLIC "-//W3C//DTD SVG 1.1//EN" "http://www.w3.org/Graphics/SVG/1.1/DTD/svg11.dtd">
<svg version="1.1" id="site" xmlns="http://www.w3.org/2000/svg" xmlns:xlink="http://www.w3.org/1999/xlink" x="0px" y="0px"
	 width="32px" height="32px" viewBox="0 0 32 32" enable-background="new 0 0 32 32" xml:space="preserve">
<g id="dog">
	<path display="inline" fill="#231F20" d="M15.752,15.877c0,0-1.313-0.065-2.57,1.683c-1.256,1.748-0.207,1.324-1.41,2.041
		c-1.204,0.715-2.105,1.559-1.857,3.035c0.244,1.473,1.412,1.996,2.694,1.881c1.285-0.113,1.704-0.041,2.717,0.422
		c1.016,0.467,1.939,0.145,2.529-0.605c0.583-0.756,1.162-1.08,2.239-0.971c1.075,0.104,3.071-0.623,2.743-2.596
		c-0.328-1.971-2.676-1.885-3.896-3.336C17.725,15.976,17.073,15.736,15.752,15.877"/>
	<path display="inline" fill="#231F20" d="M8.094,20.568c1.26-0.209,2.011-2.002,1.676-3.999c-0.333-1.997-1.626-3.446-2.887-3.233
		c-1.261,0.211-2.013,2.002-1.677,4C5.542,19.332,6.834,20.781,8.094,20.568"/>
	<path display="inline" fill="#231F20" d="M12.543,15.215c1.26-0.21,2.012-2.001,1.676-3.999c-0.333-1.998-1.625-3.446-2.886-3.232
		c-1.261,0.209-2.012,2-1.676,3.998C9.992,13.98,11.285,15.428,12.543,15.215"/>
	<path display="inline" fill="#231F20" d="M19.238,14.095c1.258-0.208,2.011-2.001,1.677-3.998
		c-0.335-1.998-1.626-3.447-2.886-3.234c-1.261,0.209-2.011,2.002-1.678,3.999C16.686,12.856,17.98,14.304,19.238,14.095"/>
	<path display="inline" fill="#231F20" d="M25.118,18.375c1.258-0.209,2.01-2,1.676-3.999c-0.335-1.997-1.627-3.446-2.887-3.232
		c-1.261,0.209-2.013,2.001-1.677,3.999C22.563,17.141,23.856,18.588,25.118,18.375"/>
</g>
</svg>
