<?xml version="1.0" encoding="utf-8"?>
<!-- Generator: Adobe Illustrator 16.0.0, SVG Export Plug-In . SVG Version: 6.00 Build 0)  -->
<!DOCTYPE svg PUBLIC "-//W3C//DTD SVG 1.1//EN" "http://www.w3.org/Graphics/SVG/1.1/DTD/svg11.dtd">
<svg version="1.1" id="site" xmlns="http://www.w3.org/2000/svg" xmlns:xlink="http://www.w3.org/1999/xlink" x="0px" y="0px"
	 width="32px" height="32px" viewBox="0 0 32 32" enable-background="new 0 0 32 32" xml:space="preserve">
<g id="email">
	<path display="inline" fill="#231F20" d="M21.023,25.982c-1.92,0.863-3.584,1.152-5.855,1.152c-5.312,0-9.983-3.809-9.983-10.08
		c0-6.526,4.736-12.19,11.967-12.19c5.632,0,9.664,3.872,9.664,9.247c0,4.671-2.624,7.615-6.08,7.615
		c-1.504,0-2.592-0.768-2.752-2.463H17.92c-0.992,1.631-2.432,2.463-4.128,2.463c-2.08,0-3.584-1.535-3.584-4.16
		c0-3.902,2.88-7.454,7.487-7.454c1.408,0,3.008,0.352,3.809,0.8l-0.96,5.919c-0.32,1.887-0.097,2.752,0.8,2.784
		c1.376,0.031,3.104-1.729,3.104-5.407c0-4.16-2.688-7.392-7.647-7.392c-4.896,0-9.184,3.84-9.184,9.952
		c0,5.343,3.424,8.382,8.191,8.382c1.632,0,3.36-0.352,4.64-1.023L21.023,25.982z M18.176,12.768
		c-0.256-0.064-0.576-0.128-0.992-0.128c-2.112,0-3.775,2.08-3.775,4.543c0,1.215,0.544,1.984,1.6,1.984
		c1.184,0,2.432-1.504,2.72-3.361L18.176,12.768z"/>
</g>
</svg>
