<?xml version="1.0" encoding="utf-8"?>
<!-- Generator: Adobe Illustrator 16.0.0, SVG Export Plug-In . SVG Version: 6.00 Build 0)  -->
<!DOCTYPE svg PUBLIC "-//W3C//DTD SVG 1.1//EN" "http://www.w3.org/Graphics/SVG/1.1/DTD/svg11.dtd">
<svg version="1.1" id="site" xmlns="http://www.w3.org/2000/svg" xmlns:xlink="http://www.w3.org/1999/xlink" x="0px" y="0px"
	 width="32px" height="32px" viewBox="0 0 32 32" enable-background="new 0 0 32 32" xml:space="preserve">
<g id="handshake2">
	<path display="inline" fill="#231F20" d="M15.676,21.038c-0.159-0.143-0.446-0.217-0.548-0.224
		c-0.285-0.026-0.539,0.085-0.719,0.261c0.154-0.416,0.096-0.743-0.145-1.031c-0.146-0.206-0.455-0.364-0.568-0.401
		c-0.345-0.111-0.688-0.033-0.942,0.148c0.153-0.306,0.147-0.59,0.006-0.881c-0.094-0.235-0.356-0.461-0.458-0.527
		c-0.345-0.216-0.743-0.199-1.05-0.041c0.264-0.291,0.332-0.594,0.242-0.936c-0.047-0.25-0.259-0.526-0.347-0.609
		c-0.369-0.353-0.891-0.372-1.253-0.159c-1.092,0.637-1.544,0.438-1.844,1.175c-0.125,0.311,0,0.744,0.181,1.081
		c0.186,0.334,0.477,0.669,0.794,0.712c0.26,0.037,0.449,0.017,0.627-0.054c-0.085,0.117-0.147,0.261-0.186,0.464
		c-0.062,0.328,0.146,0.729,0.388,1.021c0.248,0.29,0.598,0.559,0.917,0.537c0.291-0.02,0.483-0.089,0.658-0.218
		c-0.079,0.149-0.117,0.321-0.105,0.565c0.016,0.334,0.311,0.671,0.614,0.896c0.309,0.223,0.712,0.396,1.016,0.298
		c0.27-0.09,0.439-0.197,0.576-0.358c-0.019,0.12-0.011,0.251,0.033,0.413c0.075,0.278,0.382,0.501,0.678,0.632
		c0.297,0.124,0.667,0.193,0.902,0.053c0.564-0.338,0.489-0.663,0.789-1.723C16.079,21.609,15.984,21.273,15.676,21.038z"/>
	<path display="inline" fill="#231F20" d="M24.333,15.206c0.231,0.32,0.68,0.391,0.996,0.156l2.38-1.761
		c0.316-0.234,0.386-0.688,0.154-1.007l-4.196-5.8c-0.232-0.319-0.68-0.389-0.995-0.156L20.291,8.4
		c-0.316,0.235-0.386,0.687-0.153,1.007L24.333,15.206z"/>
	<path display="inline" fill="#231F20" d="M7.667,16.206c-0.23,0.319-0.679,0.39-0.996,0.156L4.291,14.6
		c-0.316-0.234-0.386-0.686-0.154-1.007l4.197-5.799c0.231-0.319,0.68-0.389,0.996-0.155l2.38,1.761
		c0.317,0.234,0.386,0.688,0.154,1.007L7.667,16.206z"/>
	<g display="inline">
		<path fill="#231F20" d="M23.893,16.426l-4.74-6.447c0,0-1.282-0.201-1.567-0.252c-1.29-0.228-1.818-0.304-2.357-0.135
			c-0.586,0.423-1.039,0.923-1.365,1.357c-0.269,0.359-0.625,0.988-0.655,1.062c-0.116,0.294-0.357,0.738-0.08,1.517
			c0.449,1.253,0.573,1.955,0.616,2.943c-0.134,0.488,1.587,0.906,2.038-1.193c0.221-1.024,0.058-1.559-0.03-2.104l0.304-0.25
			c0.355,0.251,0.842,0.536,1.464,0.764l0.006,0.003v0c0.232,0.085,0.481,0.164,0.75,0.229c0.432,0.109,0.95,0.199,1.494,0.204
			c0.085,0.18,0.191,0.368,0.324,0.561c0.471,0.686,1.265,1.439,2.584,2.168c0.354,0.159,0.612,0.338,0.804,0.51
			c0.228-0.299,0.446-0.578,0.587-0.729C24.01,16.565,23.95,16.499,23.893,16.426z"/>
		<path fill="#231F20" d="M24.007,18.092c0.097,0.29,0.083,0.596,0.073,0.662c-0.121,0.859-1.202,1.061-1.919,0.887
			c0.418,0.37,0.976,1.216,0.605,1.788c-0.035,0.053-0.296,0.419-0.722,0.5c-0.05,0.01-0.26,0.03-0.426-0.004
			c-0.55-0.082-0.967-0.547-1.084-0.689l-0.019-0.013c0.091,0.201,0.603,1.418-0.254,1.961c-0.117,0.088-0.256,0.153-0.406,0.18
			c-0.897,0.272-1.445-0.402-1.445-0.402c0.146,0.541,0.165,0.884-0.038,1.166c-0.043,0.057-0.392,0.579-0.938,0.469
			c-0.358-0.067-0.6-0.404-0.624-0.439c-0.002-0.002-0.003-0.004-0.004-0.005c-0.1,0.277-0.248,0.537-0.508,0.775
			c0.035,0.031,0.068,0.065,0.104,0.097c0.157,0.131,0.333,0.249,0.536,0.337c0.153,0.064,0.322,0.112,0.501,0.133
			c0.056,0.008,0.288,0.01,0.345,0.002c0.392-0.039,0.748-0.217,1.012-0.483c0.209-0.205,0.361-0.474,0.436-0.771
			c0.143,0.035,0.292,0.054,0.445,0.054c0.518,0,0.989-0.211,1.326-0.551c0.248-0.249,0.429-0.569,0.507-0.928
			c0.123,0.023,0.25,0.041,0.381,0.041c0.513,0,0.982-0.212,1.316-0.55c0.337-0.337,0.546-0.807,0.546-1.32
			c0-0.198-0.031-0.39-0.089-0.57c0.294-0.093,0.559-0.256,0.771-0.467c0.271-0.272,0.46-0.628,0.527-1.027
			c0.065-0.307,0.024-0.641,0.01-0.735c-0.038-0.238-0.118-0.457-0.223-0.65c-0.175-0.331-0.419-0.601-0.682-0.903
			c-0.141,0.15-0.359,0.43-0.587,0.729C23.858,17.697,23.973,18.007,24.007,18.092z"/>
	</g>
</g>
</svg>
