<?xml version="1.0" encoding="utf-8"?>
<!-- Generator: Adobe Illustrator 16.0.0, SVG Export Plug-In . SVG Version: 6.00 Build 0)  -->
<!DOCTYPE svg PUBLIC "-//W3C//DTD SVG 1.1//EN" "http://www.w3.org/Graphics/SVG/1.1/DTD/svg11.dtd">
<svg version="1.1" id="site" xmlns="http://www.w3.org/2000/svg" xmlns:xlink="http://www.w3.org/1999/xlink" x="0px" y="0px"
	 width="32px" height="32px" viewBox="0 0 32 32" enable-background="new 0 0 32 32" xml:space="preserve">
<g id="hold">
	<circle display="inline" fill="#231F20" cx="7.5" cy="8.5" r="1.5"/>
	<path display="inline" fill="#231F20" d="M7,24.19C7,24.639,6.627,25,6.167,25H5.833C5.372,25,5,24.639,5,24.19v-5.382
		C5,18.362,5.372,18,5.833,18h0.334C6.627,18,7,18.362,7,18.809V24.19z"/>
	<path display="inline" fill="#231F20" d="M10,24.19C10,24.639,9.627,25,9.167,25H8.833C8.373,25,8,24.639,8,24.19v-5.382
		C8,18.362,8.373,18,8.833,18h0.334C9.627,18,10,18.362,10,18.809V24.19z"/>
	<path display="inline" fill="#231F20" d="M9.836,15.893c-0.275,0-0.316-0.121-0.558-0.332L5,11.606v5.087
		C5,17.161,4.951,17,5.419,17h3.899C9.787,17,10,17.161,10,16.693v-0.838C10,15.88,9.924,15.893,9.836,15.893z"/>
	<path display="inline" fill="#231F20" d="M9.596,11.126c-0.019-0.001-0.037-0.003-0.055-0.003H6
		c0.074,0.043,0.145,0.093,0.211,0.151l3.641,3.174v-3.299C9.764,11.127,9.677,11.119,9.596,11.126z"/>
	<circle display="inline" fill="#231F20" cx="24.5" cy="8.5" r="1.5"/>
	<path display="inline" fill="#231F20" d="M25,24.19c0,0.448,0.373,0.81,0.833,0.81h0.334C26.628,25,27,24.639,27,24.19v-5.382
		C27,18.362,26.628,18,26.167,18h-0.334C25.373,18,25,18.362,25,18.809V24.19z"/>
	<path display="inline" fill="#231F20" d="M22,24.19c0,0.448,0.373,0.81,0.833,0.81h0.334C23.627,25,24,24.639,24,24.19v-5.382
		C24,18.362,23.627,18,23.167,18h-0.334C22.373,18,22,18.362,22,18.809V24.19z"/>
	<path display="inline" fill="#231F20" d="M22.163,15.893c0.275,0,0.315-0.121,0.558-0.332L27,11.606v5.087
		C27,17.161,27.049,17,26.58,17h-3.898C22.213,17,22,17.161,22,16.693v-0.838C22,15.88,22.076,15.893,22.163,15.893z"/>
	<path display="inline" fill="#231F20" d="M22.404,11.126c0.018-0.001,0.036-0.003,0.055-0.003H26
		c-0.074,0.043-0.145,0.093-0.211,0.151l-3.642,3.174v-3.299C22.236,11.127,22.323,11.119,22.404,11.126z"/>
	<path display="inline" fill="#231F20" d="M15.302,15.686l0.138,0.158c0.19,0.218,0.594,0.175,0.901-0.093l0.267-0.231h-1.39
		C15.233,15.581,15.26,15.638,15.302,15.686z"/>
	<path display="inline" fill="#231F20" d="M18.86,15.248h0.382v-0.526l-0.093,0.083C19.001,14.935,18.901,15.094,18.86,15.248z"/>
	<g display="inline">
		<polygon fill="#231F20" points="15,12 11,9 11,15 		"/>
		<polygon fill="#231F20" points="21,15 21,9 17,12 		"/>
		<polygon fill="#231F20" points="16,13 12,16 20,16 20,16 		"/>
		<polygon fill="#231F20" points="20,8 12,8 16,11 		"/>
	</g>
</g>
</svg>
