<?xml version="1.0" encoding="utf-8"?>
<!-- Generator: Adobe Illustrator 16.0.0, SVG Export Plug-In . SVG Version: 6.00 Build 0)  -->
<!DOCTYPE svg PUBLIC "-//W3C//DTD SVG 1.1//EN" "http://www.w3.org/Graphics/SVG/1.1/DTD/svg11.dtd">
<svg version="1.1" id="site" xmlns="http://www.w3.org/2000/svg" xmlns:xlink="http://www.w3.org/1999/xlink" x="0px" y="0px"
	 width="32px" height="32px" viewBox="0 0 32 32" enable-background="new 0 0 32 32" xml:space="preserve">
<g id="homeuro">
	<path display="inline" fill-rule="evenodd" clip-rule="evenodd" fill="#231F20" d="M4.155,14.824c0-0.521,7.956-6.978,11.455-9.893
		c0.351-0.292,0.591-0.377,1.041,0c3.465,2.905,11.195,9.373,11.192,9.893c0,0.021,0.001,11.455,0.001,11.455
		s-0.033,1.042-1.039,1.042c-1.077,0-1.042-1.042-1.042-1.042s0.046-6.968,0.007-10.315c-0.004-0.42-0.184-0.978-0.484-1.232
		c-2.793-2.368-5.646-4.664-8.439-7.029c-0.55-0.465-0.875-0.381-1.363,0.028c-2.759,2.311-5.555,4.578-8.292,6.914
		c-0.348,0.296-0.953,0.961-0.953,1.482v10.153c0,0-0.036,1.042-1.042,1.042c-1.076,0-1.022-1.042-1.022-1.042L4.155,14.824z"/>
	<g display="inline">
		<path fill="#231F20" d="M17.086,16.617c-0.858,0-1.579,0.207-2.161,0.621c-0.348,0.245-0.662,0.593-0.942,1.042
			c-0.287,0.466-0.403,0.812-0.454,1.23h5.206l-0.261,1.041h-5.206v1.042h5.206l-0.26,1.041h-4.686
			c0.214,1.171,0.744,2.113,1.562,2.604c0.588,0.353,1.138,0.521,1.822,0.521c0.955,0,1.807-0.28,2.344-0.781v1.562
			c-0.64,0.296-1.312,0.521-2.083,0.521c-2.31,0-3.949-1.057-4.762-2.978c-0.164-0.389-0.328-0.896-0.445-1.448h-1.041l0.26-1.041
			h0.781v-1.042h-1.041l0.26-1.041h0.781c0.316-1.666,1.097-2.766,2.43-3.491c0.823-0.45,1.73-0.675,2.722-0.675
			c0.95,0,1.749,0.207,2.398,0.621l-0.307,1.426C18.585,16.876,17.878,16.617,17.086,16.617z"/>
	</g>
</g>
</svg>
