<?xml version="1.0" encoding="utf-8"?>
<!-- Generator: Adobe Illustrator 16.0.0, SVG Export Plug-In . SVG Version: 6.00 Build 0)  -->
<!DOCTYPE svg PUBLIC "-//W3C//DTD SVG 1.1//EN" "http://www.w3.org/Graphics/SVG/1.1/DTD/svg11.dtd">
<svg version="1.1" id="site" xmlns="http://www.w3.org/2000/svg" xmlns:xlink="http://www.w3.org/1999/xlink" x="0px" y="0px"
	 width="32px" height="32px" viewBox="0 0 32 32" enable-background="new 0 0 32 32" xml:space="preserve">
<g id="ladie">
	<path display="inline" fill-rule="evenodd" clip-rule="evenodd" fill="#231F20" d="M25.881,26.731H6.119
		c0.594-2.171,0.477-4.25,2.237-5.81c0.544-0.478,1.151-0.966,1.998-0.966c0.759,0,1.531,0.281,2.236,0.966
		c0.909,0.884,1.926,1.938,2.839,2.817c0.062,0.06,0.32,0.191,0.549,0.288c1.041-0.979,2.043-2.198,3.127-3.225
		c0.64-0.606,1.411-0.847,2.259-0.84c0.847,0.008,1.779,0.523,2.259,1.405C24.551,23.076,25.021,24.707,25.881,26.731z"/>
	<path display="inline" fill-rule="evenodd" clip-rule="evenodd" fill="#231F20" d="M17.129,8.664
		c-0.935,2.089-2.617,2.195-4.188,2.373c-1.526,0.172-2.178,0.965-1.864,2.334c0.33,1.438,1.054,2.977,1.535,4.326
		c-0.848,0.146-2.369-0.789-3.086-2.073c-1.25-2.24-0.462-8.865,3.086-10.065c0.994-0.336,2.212-0.219,3.298-0.269
		c0.304-0.014,0.621,0.103,0.914,0.052c2.003-0.345,3.961,0.527,4.541,2.475c0.54,1.819,1.006,3.759,1.129,5.646
		c0.157,2.407-1.977,4.234-4.517,4.234c1.312-1.834,2.893-3.668,1.976-5.928C19.481,10.609,18.169,9.853,17.129,8.664z"/>
</g>
</svg>
