<?xml version="1.0" encoding="utf-8"?>
<!-- Generator: Adobe Illustrator 16.0.0, SVG Export Plug-In . SVG Version: 6.00 Build 0)  -->
<!DOCTYPE svg PUBLIC "-//W3C//DTD SVG 1.1//EN" "http://www.w3.org/Graphics/SVG/1.1/DTD/svg11.dtd">
<svg version="1.1" id="site" xmlns="http://www.w3.org/2000/svg" xmlns:xlink="http://www.w3.org/1999/xlink" x="0px" y="0px"
	 width="32px" height="32px" viewBox="0 0 32 32" enable-background="new 0 0 32 32" xml:space="preserve">
<path id="letter" d="M27.778,24.883H4.222V7.117h23.557V24.883L27.778,24.883z M7.009,23.24H24.99l-5.917-6.059
	l-1.12,1.129c-0.485,0.484-1.179,0.762-1.909,0.762c-0.004,0-0.008,0-0.012,0c-0.732-0.004-1.429-0.287-1.912-0.779l-1.139-1.152
	L7.009,23.24L7.009,23.24z M5.865,9.938v12.121l5.961-6.087L5.865,9.938L5.865,9.938z M20.231,16.017l5.903,6.042V10.073
	L20.231,16.017L20.231,16.017z M7.013,8.761l8.279,8.38c0.179,0.182,0.451,0.287,0.748,0.287c0.002,0,0.003,0,0.005,0
	c0.292,0,0.57-0.104,0.744-0.277l8.334-8.39H7.013L7.013,8.761z"/>
</svg>
