<?xml version="1.0" encoding="utf-8"?>
<!-- Generator: Adobe Illustrator 16.0.0, SVG Export Plug-In . SVG Version: 6.00 Build 0)  -->
<!DOCTYPE svg PUBLIC "-//W3C//DTD SVG 1.1//EN" "http://www.w3.org/Graphics/SVG/1.1/DTD/svg11.dtd">
<svg version="1.1" id="site" xmlns="http://www.w3.org/2000/svg" xmlns:xlink="http://www.w3.org/1999/xlink" x="0px" y="0px"
	 width="32px" height="32px" viewBox="0 0 32 32" enable-background="new 0 0 32 32" xml:space="preserve">
<g id="locker">
	<path display="inline" fill="#231F20" d="M21.5,14.562v-3.575c0-3.06-2.467-5.55-5.5-5.55c-3.034,0-5.5,2.49-5.5,5.55v3.575h3
		v-3.575c0-1.531,0.984-2.776,2.5-2.776c1.516,0,2.749,1.245,2.749,2.776v3.575H21.5z"/>
	<path display="inline" fill="#231F20" d="M8,17.855v6.221C8,25.448,9.656,27,11.083,27h10.333C22.843,27,23,25.448,23,24.076
		v-6.221C23,16.48,22.843,16,21.417,16H11.083C9.656,16,8,16.48,8,17.855z M16.251,19.099c0.712,0,0.844,0.556,0.844,1.244
		c0,0.455-0.095,0.837-1.095,1.053v2.058c0,0.344-0.142,0.623-0.501,0.623c-0.355,0-0.499-0.279-0.499-0.623v-2.058
		c0-0.216-0.344-0.598-0.344-1.053C14.657,19.654,15.536,19.099,16.251,19.099z"/>
</g>
</svg>
