<?xml version="1.0" encoding="utf-8"?>
<!-- Generator: Adobe Illustrator 16.0.0, SVG Export Plug-In . SVG Version: 6.00 Build 0)  -->
<!DOCTYPE svg PUBLIC "-//W3C//DTD SVG 1.1//EN" "http://www.w3.org/Graphics/SVG/1.1/DTD/svg11.dtd">
<svg version="1.1" id="site" xmlns="http://www.w3.org/2000/svg" xmlns:xlink="http://www.w3.org/1999/xlink" x="0px" y="0px"
	 width="32px" height="32px" viewBox="0 0 32 32" enable-background="new 0 0 32 32" xml:space="preserve">
<path id="marker" d="M16,3.715c-5.4,0-9.778,4.377-9.778,9.776c0,0.116,0.003,0.234,0.009,0.353
	c0.037,1.028,0.23,2.014,0.56,2.937C8.876,23.638,16,28.285,16,28.285s7.123-4.646,9.208-11.504c0.33-0.922,0.524-1.909,0.56-2.937
	c0.007-0.119,0.011-0.236,0.011-0.353C25.778,8.092,21.4,3.715,16,3.715z M16,18.28c-2.645,0-4.789-2.145-4.789-4.789
	c0-2.644,2.144-4.788,4.789-4.788c2.644,0,4.79,2.145,4.79,4.788C20.79,16.136,18.645,18.28,16,18.28z"/>
</svg>
