<?xml version="1.0" encoding="utf-8"?>
<!-- Generator: Adobe Illustrator 16.0.0, SVG Export Plug-In . SVG Version: 6.00 Build 0)  -->
<!DOCTYPE svg PUBLIC "-//W3C//DTD SVG 1.1//EN" "http://www.w3.org/Graphics/SVG/1.1/DTD/svg11.dtd">
<svg version="1.1" id="site" xmlns="http://www.w3.org/2000/svg" xmlns:xlink="http://www.w3.org/1999/xlink" x="0px" y="0px"
	 width="32px" height="32px" viewBox="0 0 32 32" enable-background="new 0 0 32 32" xml:space="preserve">
<g id="parking">
	<g display="inline">
		<path fill="#231F20" d="M23.359,27H8.639C6.632,27,5,25.366,5,23.359V8.64C5,6.633,5.993,5,8,5h16c2.008,0,3,0.993,3,3v15.359
			C27,25.366,25.367,27,23.359,27z M8,6C6.687,6,6,6.686,6,8v16c0,1.315,0.687,2,2,2h16c1.315,0,2-0.685,2-2V8c0-1.314-0.685-2-2-2
			H8z"/>
	</g>
	<g display="inline">
		<path fill="#231F20" d="M19.536,10.231C18.551,9.414,17.093,9,15.203,9c-1.215,0-2.375,0.082-3.44,0.246
			C11.323,9.314,11,9.664,11,10.075v12.083C11,22.621,11.408,23,11.912,23h1.715c0.503,0,0.911-0.379,0.911-0.842v-3.955
			c0.157,0.004,0.313,0.005,0.466,0.005c1.967,0,3.642-0.568,4.715-1.596C20.569,15.805,21,14.729,21,13.414
			C21,12.134,20.479,11.003,19.536,10.231z M17.462,13.505c0,1.45-1.315,1.754-2.418,1.754c-0.185,0-0.352-0.004-0.505-0.013v-3.295
			c0.196-0.012,0.431-0.02,0.705-0.02C17.462,11.931,17.462,13.115,17.462,13.505z"/>
	</g>
</g>
</svg>
