<?xml version="1.0" encoding="utf-8"?>
<!-- Generator: Adobe Illustrator 16.0.0, SVG Export Plug-In . SVG Version: 6.00 Build 0)  -->
<!DOCTYPE svg PUBLIC "-//W3C//DTD SVG 1.1//EN" "http://www.w3.org/Graphics/SVG/1.1/DTD/svg11.dtd">
<svg version="1.1" id="site" xmlns="http://www.w3.org/2000/svg" xmlns:xlink="http://www.w3.org/1999/xlink" x="0px" y="0px"
	 width="32px" height="32px" viewBox="0 0 32 32" enable-background="new 0 0 32 32" xml:space="preserve">
<g id="receptionist">
	<path display="inline" fill="#231F20" d="M9.051,18.054h1.619v-7.019c0,0,0.338-1.956,2.228-2.969
		c1.889-1.011,3.442-0.472,3.711,0.067c0,0,0.741-1.011,2.497-0.134c1.756,0.877,1.955,1.889,2.092,3.374
		c0.135,1.485-0.137,5.871-0.137,6.073c0,0-1.01,0.944-2.023,1.214l-1.012,0.271c0,0,2.092-2.092,2.092-4.453
		c0-2.363-3.17-3.981-3.17-3.981s-0.136,1.349-1.755,1.822c-1.62,0.472-3.171,0.269-3.509,1.214
		c-0.337,0.945-0.27,2.969,0.809,4.184c1.08,1.215,1.417,1.62,1.417,1.62l-0.337,0.742c0,0-1.012-0.944-1.215-1.147
		c-0.202-0.202-0.742,0.473-2.159,0.27C8.781,18.998,9.051,18.054,9.051,18.054"/>
	<path display="inline" fill="#231F20" d="M9.839,17.042H9.001c-1.204,0-2.179-0.977-2.179-2.18v-0.838
		c0-1.204,0.976-2.179,2.179-2.179h0.838V17.042z"/>
	<path display="inline" fill="#231F20" d="M22.004,17.042h0.838c1.203,0,2.178-0.977,2.178-2.18v-0.838
		c0-1.204-0.975-2.179-2.178-2.179h-0.838V17.042z"/>
	<path display="inline" fill="#231F20" d="M9.698,10.506c0.79-2.851,3.361-4.946,6.404-4.946c3.042,0,5.615,2.095,6.404,4.946h1.096
		c-0.818-3.441-3.867-6.006-7.5-6.006c-3.629,0-6.681,2.564-7.499,6.006H9.698z"/>
	<path display="inline" fill="#231F20" d="M17.824,20.18c0,0.652-0.695,1.181-1.554,1.181c-0.856,0-1.551-0.528-1.551-1.181
		s0.695-1.182,1.551-1.182C17.129,18.998,17.824,19.527,17.824,20.18"/>
	<path display="inline" fill="#231F20" d="M17.082,20.146c1.416,0,5.465-0.945,5.531-3.441"/>
	<path display="inline" fill="#231F20" d="M7.161,27.5h18.017c0,0-1.283-3.577-2.023-4.993c-0.742-1.417-3.105-1.282-3.105-1.282
		l-4.048,3.778l-3.778-3.643c0,0-1.013,0-1.822,0.201c-0.81,0.203-2.16,1.687-2.429,2.902C7.702,25.678,7.161,27.5,7.161,27.5"/>
</g>
</svg>
