<?xml version="1.0" encoding="utf-8"?>
<!-- Generator: Adobe Illustrator 16.0.0, SVG Export Plug-In . SVG Version: 6.00 Build 0)  -->
<!DOCTYPE svg PUBLIC "-//W3C//DTD SVG 1.1//EN" "http://www.w3.org/Graphics/SVG/1.1/DTD/svg11.dtd">
<svg version="1.1" id="site" xmlns="http://www.w3.org/2000/svg" xmlns:xlink="http://www.w3.org/1999/xlink" x="0px" y="0px"
	 width="32px" height="32px" viewBox="0 0 32 32" enable-background="new 0 0 32 32" xml:space="preserve">
<g id="running">
	<circle display="inline" fill="#231F20" cx="16.196" cy="8.354" r="2.206"/>
	<path display="inline" fill="#231F20" d="M24.474,9.148c-4.093,1.674-6.37,1.872-6.955,1.895c-0.031-0.004-0.062-0.006-0.094-0.006
		h-3.788c-0.019,0-0.036,0.001-0.054,0.002c-0.333-0.019-0.997-0.083-1.817-0.285c-1.184-0.292-2.685-0.872-4.021-2
		C7.412,8.474,6.917,8.518,6.638,8.848C6.359,9.18,6.401,9.675,6.731,9.954c1.579,1.33,3.31,1.99,4.657,2.323
		c0.579,0.143,1.089,0.226,1.49,0.273v5.908c-0.073,0.306-0.271,0.909-0.793,1.634c-0.731,1.008-2.098,2.28-4.809,3.289
		c-0.661,0.245-0.997,0.979-0.753,1.641c0.191,0.513,0.679,0.831,1.196,0.831c0.147,0,0.296-0.027,0.443-0.08
		c3.32-1.226,5.193-2.967,6.182-4.467c0.512-0.773,0.79-1.468,0.94-1.981c0.529,0.096,1.641,0.355,2.659,0.936
		c0.677,0.38,1.304,0.888,1.752,1.543c0.446,0.661,0.75,1.471,0.754,2.626c0,0.039,0,0.082-0.002,0.128
		c-0.011,0.705,0.551,1.286,1.255,1.295c0.007,0,0.015,0,0.021,0c0.694,0,1.265-0.558,1.274-1.255c0-0.053,0.001-0.109,0.001-0.168
		c0.005-1.683-0.501-3.096-1.271-4.167c-1-1.396-2.356-2.216-3.547-2.72v-4.978c1.148-0.125,3.426-0.547,6.886-1.964
		c0.4-0.164,0.592-0.622,0.429-1.022C25.333,9.177,24.874,8.985,24.474,9.148z"/>
</g>
</svg>
