<?xml version="1.0" encoding="utf-8"?>
<!-- Generator: Adobe Illustrator 16.0.0, SVG Export Plug-In . SVG Version: 6.00 Build 0)  -->
<!DOCTYPE svg PUBLIC "-//W3C//DTD SVG 1.1//EN" "http://www.w3.org/Graphics/SVG/1.1/DTD/svg11.dtd">
<svg version="1.1" id="site" xmlns="http://www.w3.org/2000/svg" xmlns:xlink="http://www.w3.org/1999/xlink" x="0px" y="0px"
	 width="32px" height="32px" viewBox="0 0 32 32" enable-background="new 0 0 32 32" xml:space="preserve">
<g id="theater">
	<g display="inline">
		<path fill="#231F20" d="M11.497,22.299c-4.062-1.977-5.458-6.637-6.077-9.068c1.941-0.152,4.268-0.84,6.287-1.46l0.845-1.83
			c-2.723,0.836-6.697,1.671-8.178,1.636c-0.26-0.01-0.522,0.108-0.688,0.317c-0.167,0.209-0.225,0.484-0.157,0.742
			c0.037,0.139,0.077,0.301,0.123,0.484c0.589,2.376,2.59,9.575,9.254,11.264C12.248,23.819,11.497,22.299,11.497,22.299z
			 M7.551,16.663c0.984,0.754,1.326,0.787,2.113,0.683c0.788-0.104,1.644-0.922,1.644-0.922
			C10.544,15.315,8.291,14.872,7.551,16.663z"/>
	</g>
	<path display="inline" fill="#231F20" d="M28.376,12.876c-0.149-0.267-0.418-0.445-0.72-0.474
		c-2.128-0.215-8.651-3.185-10.867-5.165c-0.221-0.197-0.522-0.278-0.811-0.218c-0.289,0.062-0.534,0.256-0.659,0.527
		c-0.068,0.146-0.149,0.314-0.24,0.505c-1.358,2.831-4.968,10.349-0.155,16.583c0.178,0.229,0.45,0.364,0.74,0.364h0.006
		c7.57-0.056,11.277-8.082,12.672-11.103l0.069-0.149C28.541,13.469,28.528,13.145,28.376,12.876z M18.478,15.958
		c0,0-1.314,0.087-2.06-0.391c-0.744-0.478-1.013-0.752-1.309-2.11C17.02,12.449,18.619,14.455,18.478,15.958z M19.95,22.014
		c-1.126,0.854-2.49,1.628-3.782,1.017c-1.292-0.609-1.635-3.144-1.71-3.362c-0.074-0.221,0.123-0.678,0.287-0.436
		c0.484,0.706,3.283,2.417,5.167,2.383C20.161,21.61,20.126,21.88,19.95,22.014z M21.572,18.031
		c-0.837-0.278-1.604-1.362-1.604-1.362c1.054-1.067,3.598-1.091,4.045,1.042C22.79,18.345,22.41,18.309,21.572,18.031z"/>
</g>
</svg>
